<svg xmlns="http://www.w3.org/2000/svg" viewBox="0 0 64 64">
  <defs>
    <linearGradient id="fitidionGradient" x1="0%" y1="0%" x2="100%" y2="100%">
      <stop offset="0%" stop-color="#FF6600" />
      <stop offset="100%" stop-color="#FFE8D1" />
    </linearGradient>
  </defs>
  <rect width="64" height="64" rx="16" fill="#FFFFFF" />
  <circle cx="32" cy="32" r="26" fill="url(#fitidionGradient)" opacity="0.15" />
  <path
    d="M20 44c5.5-3.8 7.8-7.8 8.8-13.1-2.6-1.8-4.2-4.6-4.2-7.8 0-5.5 4.3-10 10-10s10 4.5 10 10c0 6.8-5.5 12.3-12.3 12.3-0.8 4-3.2 7.8-7.7 11.6z"
    fill="#FF6600"
    stroke="#1B1B1F"
    stroke-width="1.5"
    stroke-linecap="round"
    stroke-linejoin="round"
  />
  <path
    d="M36 18c4.2 0 7.6 3.4 7.6 7.6 0 5.2-4.2 9.4-9.4 9.4-0.7 0-1.4-0.1-2.1-0.3"
    fill="none"
    stroke="#FFE8D1"
    stroke-width="2"
    stroke-linecap="round"
  />
</svg>
